<svg width="75" height="30" viewBox="0 0 75 30" fill="none" xmlns="http://www.w3.org/2000/svg">
<path d="M15.5088 7.68726L17.8263 12.295L23.0088 13.0385L19.2588 16.6231L20.1438 21.6873L15.5088 19.295L10.8738 21.6873L11.7588 16.6231L8.00879 13.0385L13.1913 12.295L15.5088 7.68726Z" fill="#FFBB35"/>
<path d="M32.7946 9.95726H33.7826L37.5526 19.1873H36.3046L35.2126 16.4833H31.3386L30.2596 19.1873H29.0116L32.7946 9.95726ZM34.9526 15.5733L33.2886 11.3093L31.5726 15.5733H34.9526ZM41.4023 19.3173C40.891 19.3173 40.423 19.2263 39.9983 19.0443C39.5823 18.8536 39.2183 18.5936 38.9063 18.2643C38.603 17.9349 38.3647 17.5579 38.1913 17.1333C38.0267 16.7086 37.9443 16.2579 37.9443 15.7813C37.9443 15.1399 38.0873 14.5549 38.3733 14.0263C38.6593 13.4976 39.0623 13.0773 39.5823 12.7653C40.1023 12.4446 40.7047 12.2843 41.3893 12.2843C42.0567 12.2843 42.6373 12.4359 43.1313 12.7393C43.634 13.0339 44.0067 13.4326 44.2493 13.9353L43.1313 14.2863C42.958 13.9656 42.7153 13.7186 42.4033 13.5453C42.0913 13.3633 41.7447 13.2723 41.3633 13.2723C40.9473 13.2723 40.566 13.3806 40.2193 13.5973C39.8813 13.8139 39.6127 14.1129 39.4133 14.4943C39.214 14.8669 39.1143 15.2959 39.1143 15.7813C39.1143 16.2579 39.214 16.6913 39.4133 17.0813C39.6213 17.4626 39.8943 17.7659 40.2323 17.9913C40.579 18.2166 40.9603 18.3293 41.3763 18.3293C41.645 18.3293 41.9007 18.2816 42.1433 18.1863C42.3947 18.0909 42.6113 17.9653 42.7933 17.8093C42.984 17.6446 43.114 17.4669 43.1833 17.2763L44.3013 17.6143C44.1627 17.9436 43.9503 18.2383 43.6643 18.4983C43.387 18.7496 43.0533 18.9489 42.6633 19.0963C42.282 19.2436 41.8617 19.3173 41.4023 19.3173ZM49.1076 18.8493C49.0122 18.8926 48.8822 18.9489 48.7176 19.0183C48.5529 19.0876 48.3622 19.1483 48.1456 19.2003C47.9289 19.2523 47.6992 19.2783 47.4566 19.2783C47.1792 19.2783 46.9236 19.2306 46.6896 19.1353C46.4556 19.0313 46.2692 18.8753 46.1306 18.6673C45.9919 18.4506 45.9226 18.1819 45.9226 17.8613V13.2983H44.9996V12.4013H45.9226V10.1393H47.0666V12.4013H48.5876V13.2983H47.0666V17.5103C47.0839 17.7529 47.1662 17.9349 47.3136 18.0563C47.4609 18.1689 47.6342 18.2253 47.8336 18.2253C48.0589 18.2253 48.2669 18.1863 48.4576 18.1083C48.6482 18.0303 48.7739 17.9739 48.8346 17.9393L49.1076 18.8493ZM50.1679 19.1873V12.4013H51.3119V19.1873H50.1679ZM50.1679 11.1273V9.69726H51.3119V11.1273H50.1679ZM55.114 19.1873L52.449 12.4013H53.645L55.777 18.0953L57.909 12.4013H59.027L56.362 19.1873H55.114ZM62.9463 19.3173C62.4349 19.3173 61.9669 19.2263 61.5423 19.0443C61.1263 18.8536 60.7623 18.5979 60.4503 18.2773C60.1469 17.9479 59.9086 17.5709 59.7353 17.1463C59.5706 16.7216 59.4883 16.2709 59.4883 15.7943C59.4883 15.1529 59.6356 14.5679 59.9303 14.0393C60.2249 13.5106 60.6323 13.0859 61.1523 12.7653C61.6809 12.4446 62.2833 12.2843 62.9593 12.2843C63.6439 12.2843 64.2376 12.4489 64.7403 12.7783C65.2516 13.0989 65.6459 13.5236 65.9233 14.0523C66.2093 14.5723 66.3523 15.1356 66.3523 15.7423C66.3523 15.8289 66.3479 15.9156 66.3393 16.0023C66.3393 16.0803 66.3349 16.1409 66.3263 16.1843H60.6973C60.7319 16.6263 60.8533 17.0206 61.0613 17.3673C61.2779 17.7053 61.5553 17.9739 61.8933 18.1733C62.2313 18.3639 62.5953 18.4593 62.9853 18.4593C63.4013 18.4593 63.7913 18.3553 64.1553 18.1473C64.5279 17.9393 64.7836 17.6663 64.9223 17.3283L65.9103 17.6013C65.7629 17.9306 65.5419 18.2253 65.2473 18.4853C64.9613 18.7453 64.6189 18.9489 64.2203 19.0963C63.8303 19.2436 63.4056 19.3173 62.9463 19.3173ZM60.6583 15.3913H65.2863C65.2516 14.9493 65.1259 14.5593 64.9093 14.2213C64.6926 13.8833 64.4153 13.6189 64.0773 13.4283C63.7393 13.2376 63.3666 13.1423 62.9593 13.1423C62.5606 13.1423 62.1923 13.2376 61.8543 13.4283C61.5163 13.6189 61.2389 13.8833 61.0223 14.2213C60.8143 14.5593 60.6929 14.9493 60.6583 15.3913Z" fill="#008000"/>
</svg>
