<svg width="23" height="24" viewBox="0 0 23 24" fill="none" xmlns="http://www.w3.org/2000/svg">
<path d="M18.3366 7.60117C18.3366 5.85043 17.6342 4.1714 16.384 2.93344C15.1337 1.69548 13.438 1 11.6699 1C9.90181 1 8.20612 1.69548 6.95588 2.93344C5.70563 4.1714 5.00326 5.85043 5.00326 7.60117C5.00326 15.3025 1.66992 17.5029 1.66992 17.5029H21.6699C21.6699 17.5029 18.3366 15.3025 18.3366 7.60117Z" stroke="white" stroke-width="1.5" stroke-linecap="round" stroke-linejoin="round"/>
<path d="M13.592 21.5029C13.3967 21.8364 13.1163 22.1132 12.7789 22.3056C12.4416 22.498 12.0591 22.5992 11.6698 22.5992C11.2805 22.5992 10.898 22.498 10.5606 22.3056C10.2233 22.1132 9.9429 21.8364 9.74756 21.5029" stroke="white" stroke-width="1.5" stroke-linecap="round" stroke-linejoin="round"/>
</svg>
